<?xml version="1.0" encoding="utf-8"?>
<svg version="1.1" id="layer_1" xmlns="http://www.w3.org/2000/svg" xmlns:xlink="http://www.w3.org/1999/xlink" x="0px" y="0px"
	 viewBox="0 0 1000 573.32" style="enable-background:new 0 0 1000 573.32;" xml:space="preserve">
<style type="text/css">
	.st0{fill:none;stroke:#000000;stroke-width:0.5669;stroke-linecap:round;stroke-linejoin:round;stroke-miterlimit:10;}
</style>
<g id="SPLINE_4_">
	<path class="st0" d="M888.19,244.14c4.01,0,7.26,3.25,7.26,7.26c0,4.01-3.25,7.26-7.26,7.26c-4.01,0-7.26-3.25-7.26-7.26
		C880.93,247.39,884.18,244.14,888.19,244.14z"/>
</g>
<path style="fill: rgba(255,255,255,0.4)" d="M984.21,178.35c-24.12-13.92-48.24-27.85-72.36-41.78c-9.8-5.66-12.25-10.59-12.25-21.95c0-25.62,0-51.25,0-76.87
	c0-17.18-13.93-31.11-31.11-31.11c-12.75,0-23.72,7.68-28.52,18.66c-4.27,9.76-4.94,12.46-16.63,12.46H177.27
	c-11.69,0-12.36-2.7-16.63-12.46c-4.8-10.98-15.77-18.66-28.52-18.66C114.94,6.64,101,20.57,101,37.75c0,25.62,0,51.25,0,76.87
	c0,11.36-2.45,16.3-12.25,21.95c-24.12,13.93-48.24,27.85-72.36,41.78c-10.7,6.18-13.18,12.8-13.18,24.89v96.33
	c0,12.08,2.48,18.71,13.18,24.89c24.12,13.93,48.24,27.85,72.36,41.78c9.8,5.66,12.25,10.59,12.25,21.95c0,49.13,0,98.26,0,147.39
	c0,17.18,13.93,31.11,31.11,31.11c12.75,0,23.72-7.68,28.52-18.66c4.27-9.76,4.94-12.46,16.63-12.46h646.07
	c11.69,0,12.36,2.7,16.63,12.46c4.8,10.98,15.77,18.66,28.52,18.66c17.18,0,31.11-13.93,31.11-31.11c0-49.13,0-98.26,0-147.39
	c0-11.36,2.45-16.3,12.25-21.95c24.12-13.93,48.24-27.85,72.36-41.78c10.7-6.18,13.18-12.8,13.18-24.89v-96.33
	C997.39,191.15,994.91,184.53,984.21,178.35z M112.41,258.66c-4.01,0-7.26-3.25-7.26-7.26c0-4.01,3.25-7.26,7.26-7.26
	c4.01,0,7.26,3.25,7.26,7.26C119.67,255.41,116.42,258.66,112.41,258.66z M132.12,546.98c-6.3,0-11.41-5.11-11.41-11.41
	s5.11-11.41,11.41-11.41s11.41,5.11,11.41,11.41S138.42,546.98,132.12,546.98z M132.12,49.16c-6.3,0-11.41-5.11-11.41-11.41
	s5.11-11.41,11.41-11.41s11.41,5.11,11.41,11.41S138.42,49.16,132.12,49.16z M500.3,424.6c-4.01,0-7.26-3.25-7.26-7.26
	c0-4.01,3.25-7.26,7.26-7.26c4.01,0,7.26,3.25,7.26,7.26C507.56,421.35,504.31,424.6,500.3,424.6z M500.3,131.09
	c-4.01,0-7.26-3.25-7.26-7.26c0-4.01,3.25-7.26,7.26-7.26c4.01,0,7.26,3.25,7.26,7.26C507.56,127.84,504.31,131.09,500.3,131.09z
	 M868.49,546.98c-6.3,0-11.41-5.11-11.41-11.41s5.11-11.41,11.41-11.41s11.41,5.11,11.41,11.41S874.79,546.98,868.49,546.98z
	 M868.49,49.16c-6.3,0-11.41-5.11-11.41-11.41s5.11-11.41,11.41-11.41s11.41,5.11,11.41,11.41S874.79,49.16,868.49,49.16z
	 M888.19,258.66c-4.01,0-7.26-3.25-7.26-7.26c0-4.01,3.25-7.26,7.26-7.26c4.01,0,7.26,3.25,7.26,7.26
	C895.45,255.41,892.2,258.66,888.19,258.66z"/>
</svg>