<?xml version="1.0" encoding="UTF-8"?>
<svg width="4750px" height="900px" viewBox="0 0 4750 900" version="1.1" xmlns="http://www.w3.org/2000/svg" xmlns:xlink="http://www.w3.org/1999/xlink">
    <!-- Generator: Sketch 47.1 (45422) - http://www.bohemiancoding.com/sketch -->
    <title>Artboard</title>
    <desc>Created with Sketch.</desc>
    <defs></defs>
    <g id="Page-1" stroke="none" stroke-width="1" fill="none" fill-rule="evenodd">
        <g id="Artboard" fill-rule="nonzero">
            <g id="Group-3" transform="translate(931.000000, 220.000000)">
                <rect id="Rectangle-path" fill="#FFFFFF" x="0.027027" y="0.1495327" width="743.889489" height="472.429907"></rect>
                <rect id="Rectangle-path" fill="#F7B600" x="12.175976" y="395.943925" width="719.124324" height="64.4859813"></rect>
                <rect id="Rectangle-path" fill="#1A1F71" x="12.175976" y="12.7663551" width="719.124324" height="64.4859813"></rect>
                <path d="M300.01261,148.280374 L225.71712,325.383178 L177.121321,325.383178 L140.674474,183.794393 C138.338138,174.915888 136.469069,172.11215 129.927327,168.373832 C115.531418,161.444749 100.29524,156.41814 84.602402,153.420561 L85.536937,148.280374 L163.570571,148.280374 C174.118391,148.327983 183.051291,156.070202 184.597598,166.504673 L203.75556,268.841121 L251.41682,148.280374 L300.01261,148.280374 Z M490.19039,267.439252 C490.19039,220.71028 425.70751,217.906542 426.17477,197.345794 C426.17477,190.803738 432.24925,184.261682 445.8,182.392523 C461.34676,180.940801 476.99841,183.684005 491.12492,190.336449 L499.06847,152.953271 C485.34912,147.684929 470.7759,144.99192 456.07988,145.009346 C410.75495,145.009346 378.98078,169.308411 378.51351,203.420561 C378.04625,229.121495 401.40961,243.140187 418.6985,251.551402 C435.98739,259.962617 442.52913,266.037383 442.52913,273.514019 C442.52913,285.196262 428.04384,290.803738 414.96036,290.803738 C398.51889,291.258268 382.24588,287.391227 367.76637,279.588785 L359.35556,318.373832 C375.53583,324.868472 392.8558,328.0466 410.28769,327.719626 C458.41622,328.186916 489.72312,304.35514 490.19039,267.439252 L490.19039,267.439252 Z M609.81081,325.383178 L652.33213,325.383178 L615.41802,148.280374 L576.16757,148.280374 C567.55371,148.177174 559.76011,153.373162 556.54234,161.364486 L487.38679,325.383178 L535.51532,325.383178 L544.86066,298.747664 L603.73634,298.747664 L609.81081,325.383178 Z M558.41141,262.766355 L582.70931,196.411215 L596.72733,262.766355 L558.41141,262.766355 Z M365.43003,148.280374 L327.58138,325.383178 L281.78919,325.383178 L319.63784,148.280374 L365.43003,148.280374 Z" id="Shape" fill="#1A1F71"></path>
            </g>
            <g id="Group-2" transform="translate(0.000000, 241.000000)">
                <path d="M100.148348,422.607477 L100.148348,394.570093 C100.58154,389.82377 98.91689,385.125455 95.592172,381.710715 C92.267454,378.295976 87.615417,376.506572 82.859459,376.813084 C76.55216,376.562254 70.556097,379.560429 66.972372,384.757009 C63.853387,379.534135 58.093444,376.474018 52.01982,376.813084 C46.69116,376.580727 41.60149,379.037927 38.469069,383.35514 L38.469069,377.747664 L29.590991,377.747664 L29.590991,422.607477 L38.469069,422.607477 L38.469069,396.906542 C38.095255,393.791712 39.138177,390.673436 41.310671,388.410312 C43.483166,386.147189 46.556145,384.977862 49.683483,385.224299 C56.225225,385.224299 59.963363,389.429907 59.963363,396.906542 L59.963363,422.607477 L68.841441,422.607477 L68.841441,396.906542 C68.467628,393.791712 69.510549,390.673436 71.683044,388.410312 C73.855538,386.147189 76.928518,384.977862 80.055856,385.224299 C86.597598,385.224299 90.335736,389.429907 90.335736,396.906542 L90.335736,422.607477 L100.148348,422.607477 Z M245.935736,378.214953 L229.581381,378.214953 L229.581381,364.663551 L220.703303,364.663551 L220.703303,378.214953 L211.357958,378.214953 L211.357958,386.158879 L220.703303,386.158879 L220.703303,407.186916 C220.703303,417.46729 224.441441,423.542056 235.655856,423.542056 C239.911522,423.457931 244.082153,422.335015 247.804805,420.271028 L245.001201,412.327103 C242.482245,413.902301 239.560849,414.713839 236.59039,414.663551 C234.601007,414.8276 232.645589,414.074329 231.28035,412.618005 C229.915112,411.16168 229.289467,409.161685 229.581381,407.186916 L229.581381,385.691589 L245.935736,385.691589 L245.935736,378.214953 Z M329.109309,376.813084 C324.192524,376.711637 319.582157,379.194262 316.96036,383.35514 L316.96036,377.747664 L308.082282,377.747664 L308.082282,422.607477 L316.96036,422.607477 L316.96036,397.373832 C316.96036,389.897196 320.698498,385.224299 326.772973,385.224299 C328.826491,385.306473 330.864192,385.61998 332.847447,386.158879 L335.651051,377.747664 C333.509209,377.207925 331.316597,376.89468 329.109309,376.813084 Z M203.414414,381.485981 C197.944025,378.14063 191.596094,376.512878 185.190991,376.813084 C173.976577,376.813084 166.967568,381.953271 166.967568,390.831776 C166.967568,398.308411 172.107508,402.514019 181.92012,403.915888 L186.592793,404.383178 C191.732733,405.317757 195.003604,407.186916 195.003604,409.523364 C195.003604,412.794393 191.265465,415.130841 184.256456,415.130841 C178.896513,415.242476 173.64656,413.601787 169.303904,410.457944 L164.631231,417.46729 C170.307879,421.220923 176.984584,423.175174 183.789189,423.074766 C196.872673,423.074766 203.881682,417 203.881682,408.588785 C203.881682,400.17757 198.274474,396.906542 188.461862,395.504673 L183.789189,395.037383 C179.583784,394.570093 175.845646,393.168224 175.845646,390.364486 C175.845646,387.560748 179.583784,384.757009 184.723724,384.757009 C189.612422,384.970246 194.395994,386.245926 198.741742,388.495327 L203.414414,381.485981 Z M339.389189,400.17757 C339.002502,406.484838 341.339545,412.655033 345.807617,417.12332 C350.275689,421.591606 356.445588,423.928762 362.752553,423.542056 C368.5006,423.844289 374.157909,422.013895 378.63964,418.401869 L373.966967,411.392523 C370.666011,414.084576 366.544613,415.568351 362.285285,415.598131 C354.484579,414.98092 348.469032,408.47032 348.469032,400.64486 C348.469032,392.8194 354.484579,386.3088 362.285285,385.691589 C366.544613,385.721369 370.666011,387.205143 373.966967,389.897196 L378.63964,382.88785 C374.157909,379.275824 368.5006,377.44543 362.752553,377.747664 C356.523192,377 350.28694,379.085944 345.76091,383.431141 C341.234879,387.776339 338.896338,393.922593 339.389189,400.17757 L339.389189,400.17757 Z M276.308108,376.813084 C263.224625,376.813084 254.346547,386.158879 254.346547,400.17757 C253.941858,406.407297 256.207337,412.514883 260.576683,416.973613 C264.946028,421.432342 271.006312,423.820842 277.242643,423.542056 C283.835816,423.679026 290.273706,421.53296 295.466066,417.46729 L290.793393,410.925234 C287.039847,413.834161 282.456908,415.471003 277.70991,415.598131 C270.828544,415.860185 264.913876,410.761088 264.159159,403.915888 L297.335135,403.915888 L297.335135,400.17757 C297.335135,386.158879 288.924324,376.813084 276.308108,376.813084 L276.308108,376.813084 Z M276.308108,385.224299 C279.366106,385.083356 282.347892,386.203955 284.556235,388.324066 C286.764577,390.444176 288.005844,393.377903 287.98979,396.439252 L263.691892,396.439252 C264.117722,389.877142 269.741642,384.877862 276.308108,385.224299 L276.308108,385.224299 Z M155.285886,400.17757 L155.285886,377.747664 L146.407808,377.747664 L146.407808,383.35514 C142.9373,378.939805 137.529493,376.497452 131.922523,376.813084 C119.019293,376.813084 108.559159,387.273721 108.559159,400.17757 C108.559159,413.081419 119.019293,423.542056 131.922523,423.542056 C137.529493,423.857688 142.9373,421.415336 146.407808,417 L146.407808,422.607477 L155.285886,422.607477 L155.285886,400.17757 Z M118.839039,400.17757 C119.34682,392.577723 125.829642,386.773866 133.438786,387.106899 C141.04793,387.439932 146.998945,393.787987 146.840867,401.40314 C146.68279,409.018292 140.473466,415.113895 132.857057,415.130841 C128.944538,415.226154 125.177103,413.64811 122.500377,410.792798 C119.82365,407.937486 118.491771,404.076 118.839039,400.17757 L118.839039,400.17757 Z M464.14955,376.813084 C459.232765,376.711637 454.622398,379.194262 452.000601,383.35514 L452.000601,377.747664 L443.122523,377.747664 L443.122523,422.607477 L452.000601,422.607477 L452.000601,397.373832 C452.000601,389.897196 455.738739,385.224299 461.813213,385.224299 C463.866731,385.306473 465.904432,385.61998 467.887688,386.158879 L470.691291,377.747664 C468.549449,377.207925 466.356838,376.89468 464.14955,376.813084 L464.14955,376.813084 Z M536.108709,416.065421 C536.767368,415.995496 537.429512,416.16104 537.977778,416.53271 C538.445045,416.53271 538.912312,417 539.37958,417.46729 C539.846847,417.934579 540.314114,418.401869 540.314114,418.869159 C540.314114,419.336449 540.781381,419.803738 540.781381,420.738318 C540.851302,421.397009 540.685766,422.059185 540.314114,422.607477 C539.846847,423.074766 539.846847,423.542056 539.37958,424.009346 C538.912312,424.476636 538.445045,424.943925 537.977778,424.943925 C537.510511,424.943925 537.043243,425.411215 536.108709,425.411215 C535.45005,425.481139 534.787905,425.315595 534.23964,424.943925 C533.772372,424.476636 533.305105,424.476636 532.837838,424.009346 C532.370571,423.542056 531.903303,423.074766 531.903303,422.607477 C531.903303,422.140187 531.436036,421.672897 531.436036,420.738318 C531.366115,420.079627 531.531651,419.417451 531.903303,418.869159 C532.370571,418.401869 532.370571,417.934579 532.837838,417.46729 C533.305105,417 533.772372,416.53271 534.23964,416.53271 C534.706907,416.53271 535.641441,416.065421 536.108709,416.065421 L536.108709,416.065421 Z M536.108709,424.009346 C536.622353,424.071175 537.136691,423.899721 537.510511,423.542056 C538.007527,423.498595 538.401586,423.104517 538.445045,422.607477 L539.37958,421.672897 C539.37958,421.205607 539.846847,420.738318 539.846847,420.271028 C539.908673,419.757359 539.737227,419.242996 539.37958,418.869159 C539.33612,418.372118 538.942062,417.978041 538.445045,417.934579 L537.510511,417 C537.043243,417 536.575976,416.53271 536.108709,416.53271 C535.595065,416.470881 535.080726,416.642335 534.706907,417 C534.20989,417.043461 533.815832,417.437539 533.772372,417.934579 L532.837838,418.869159 C532.837838,419.336449 532.370571,419.803738 532.370571,420.271028 C532.308744,420.784697 532.48019,421.29906 532.837838,421.672897 C532.881297,422.169938 533.275356,422.564015 533.772372,422.607477 L534.706907,423.542056 C535.080726,423.899721 535.595065,424.071175 536.108709,424.009346 L536.108709,424.009346 Z M536.575976,418.869159 C537.08962,418.807329 537.603959,418.978784 537.977778,419.336449 C538.445045,419.803738 538.445045,419.803738 538.445045,420.271028 C538.445045,420.738318 538.445045,420.738318 537.977778,421.205607 C537.725739,421.459371 537.397468,421.623515 537.043243,421.672897 L538.445045,423.074766 L537.043243,423.074766 L535.641441,421.672897 L535.174174,421.672897 L535.174174,423.074766 L534.23964,423.074766 L534.23964,418.869159 L536.575976,418.869159 Z M535.641441,419.336449 L535.641441,420.271028 L537.043243,420.271028 L537.043243,419.336449 L535.641441,419.336449 L535.641441,419.336449 Z M429.571772,400.17757 L429.571772,377.747664 L420.693694,377.747664 L420.693694,383.35514 C417.223186,378.939805 411.815379,376.497452 406.208408,376.813084 C393.305179,376.813084 382.845045,387.273721 382.845045,400.17757 C382.845045,413.081419 393.305179,423.542056 406.208408,423.542056 C411.815379,423.857688 417.223186,421.415336 420.693694,417 L420.693694,422.607477 L429.571772,422.607477 L429.571772,400.17757 Z M393.592192,400.17757 C394.099973,392.577723 400.582796,386.773866 408.191939,387.106899 C415.801083,387.439932 421.752098,393.787987 421.594021,401.40314 C421.435943,409.018292 415.226619,415.113895 407.61021,415.130841 C398.732132,415.598131 393.592192,408.588785 393.592192,400.17757 Z M520.221622,400.17757 L520.221622,359.990654 L511.343544,359.990654 L511.343544,383.35514 C507.873036,378.939805 502.465229,376.497452 496.858258,376.813084 C483.955029,376.813084 473.494895,387.273721 473.494895,400.17757 C473.494895,413.081419 483.955029,423.542056 496.858258,423.542056 C502.465229,423.857688 507.873036,421.415336 511.343544,417 L511.343544,422.607477 L520.221622,422.607477 L520.221622,400.17757 Z M483.774775,400.17757 C484.282555,392.577723 490.765378,386.773866 498.374522,387.106899 C505.983665,387.439932 511.934681,393.787987 511.776603,401.40314 C511.618526,409.018292 505.409201,415.113895 497.792793,415.130841 C493.880274,415.226154 490.112839,413.64811 487.436112,410.792798 C484.759386,407.937486 483.427506,404.076 483.774775,400.17757 L483.774775,400.17757 Z" id="_Compound_Path_" fill="#FFFFFF"></path>
                <g id="_Group_" transform="translate(0.816817, 0.710280)">
                    <rect id="Rectangle-path" fill="#FF5F00" x="192.317718" y="36.8504673" width="162.141742" height="264.485981"></rect>
                    <path d="M209.139339,169.093458 C209.153465,117.546627 232.733481,68.8352035 273.154955,36.8504673 C215.225765,-8.69878843 134.395222,-11.2392383 73.7202878,30.5823693 C13.045354,72.4039769 -13.3469684,148.850277 8.6020315,219.199715 C30.5510314,289.549153 95.7309473,337.422201 169.421622,337.317757 C207.063819,337.344252 243.613512,324.666497 273.154955,301.336449 C232.733481,269.351712 209.153465,220.640289 209.139339,169.093458 Z" id="_Path_" fill="#EB001B"></path>
                    <path d="M529.217417,273.299065 L529.217417,267.691589 L531.553754,267.691589 L531.553754,266.757009 L525.946547,266.757009 L525.946547,267.691589 L528.282883,267.691589 L528.282883,273.299065 L529.217417,273.299065 Z M540.431832,273.299065 L540.431832,266.757009 L538.562763,266.757009 L536.693694,271.429907 L534.824625,266.757009 L532.955556,266.757009 L532.955556,273.299065 L534.357357,273.299065 L534.357357,268.158879 L536.226426,272.364486 L537.628228,272.364486 L539.497297,268.158879 L539.497297,273.299065 L540.431832,273.299065 Z" id="Shape" fill="#F79E1B"></path>
                    <path d="M545.571772,169.093458 C545.500199,233.415124 508.758921,292.065589 450.916083,320.193269 C393.073245,348.320949 324.255373,341.00154 273.622222,301.336449 C314.054288,269.360337 337.636585,220.643247 337.636585,169.093458 C337.636585,117.543669 314.054288,68.8265786 273.622222,36.8504673 C324.255373,-2.81462441 393.073245,-10.1340334 450.916083,17.9936466 C508.758921,46.1213265 545.500199,104.771792 545.571772,169.093458 L545.571772,169.093458 Z" id="Shape" fill="#F79E1B"></path>
                </g>
            </g>
            <g id="pb" transform="translate(2060.000000, 223.000000)">
                <path d="M361.722221,96.4516131 L361.722221,362.741937 L326.069446,362.741937 C311.38889,230.645162 227.5,148.870968 95.3750001,132.096774 L95.3750001,96.4516131 L361.722221,96.4516131 L361.722221,96.4516131 Z M1,2.09677421 L1,222.258065 L47.1388889,222.258065 C170.875,222.258065 233.791667,285.161291 233.791667,408.870968 L233.791667,455 L454,455 L454,0 L1,2.09677421 L1,2.09677421 Z" id="Shape" fill="#75AF26"></path>
                <rect id="Rectangle-path" fill="#000000" transform="translate(90.500000, 365.500000) rotate(-179.943877) translate(-90.500000, -365.500000) " x="1" y="277" width="179" height="177"></rect>
                <g id="Group" transform="translate(521.000000, 172.000000)" fill="#75AF26">
                    <path d="M132.473759,0.298626718 C147.184377,0.298626718 159.793478,2.39340538 172.402579,4.48818401 C185.011681,6.58296266 197.620782,12.8672986 206.02685,19.1516344 C216.534434,25.4359704 222.838984,35.9098637 229.143535,46.383757 C235.448086,58.9524289 237.549603,73.6158793 237.549603,90.3741085 C237.549603,105.037559 235.448086,117.606231 231.245052,128.080124 C227.042018,138.554017 222.838984,146.933132 216.534434,153.217468 C210.229883,159.501804 203.925333,165.78614 195.519265,169.975697 C187.113198,174.165254 180.808647,176.260033 172.402579,178.354812 C163.996512,180.44959 155.590445,182.544369 149.285894,182.544369 L130.372242,182.544369 L67.326736,182.544369 L67.326736,278.904186 L0.0781959776,278.904186 L0.0781959776,0.298626718 L132.473759,0.298626718 L132.473759,0.298626718 Z M67.326736,132.269681 L119.864658,132.269681 C136.676793,132.269681 147.184377,130.174903 155.590445,123.890567 C163.996512,117.606231 168.199546,107.132338 168.199546,94.5636658 C168.199546,84.0897725 166.098029,77.8054366 163.996512,73.6158793 C159.793478,69.4263219 155.590445,65.2367646 151.387411,63.1419862 C147.184377,61.0472076 140.879826,58.9524289 136.676793,58.9524289 L121.966174,58.9524289 L69.4282529,58.9524289 L69.4282529,132.269681 L67.326736,132.269681 Z" id="Shape"></path>
                    <path d="M416.178535,111.321895 L407.77247,111.321895 L399.366402,111.321895 C390.960334,111.321895 382.554266,113.416673 374.148201,115.511452 C365.742132,117.606231 359.437582,121.795788 353.133032,128.080124 C346.828479,134.36446 342.625446,142.743575 340.523928,155.312247 C336.320896,165.78614 336.320896,180.44959 336.320896,199.302598 L336.320896,283.093745 L275.376907,283.093745 L275.376907,77.8054366 L336.320896,77.8054366 L336.320896,111.321895 C340.523928,102.94278 344.726964,96.6584445 351.031514,90.3741085 C357.336064,84.0897725 361.539097,79.9002152 367.843647,77.8054366 C374.148201,75.7106579 380.452751,73.6158793 388.858816,71.5211006 C395.163367,69.4263219 403.569435,69.4263219 409.873985,69.4263219 L416.178535,69.4263219 L416.178535,111.321895 L416.178535,111.321895 Z" id="Shape"></path>
                    <path d="M445.599772,0.298626718 L506.543761,0.298626718 L506.543761,48.4785356 L445.599772,48.4785356 L445.599772,0.298626718 L445.599772,0.298626718 Z M506.543761,77.8054366 L506.543761,283.093745 L445.599772,283.093745 L445.599772,77.8054366 L506.543761,77.8054366 L506.543761,77.8054366 Z" id="Shape"></path>
                    <polygon id="Shape" points="683.07118 77.8054366 748.218202 77.8054366 672.563594 283.093745 605.315055 283.093745 529.660448 77.8054366 594.807472 77.8054366 638.939325 226.53472"></polygon>
                    <path d="M773.436406,144.838353 C773.436406,132.269681 775.537921,123.890567 779.740956,115.511452 C783.943989,107.132338 788.147024,100.848002 794.451575,94.5636658 C800.756125,88.2793299 807.060675,84.0897725 813.365226,81.9949939 C819.669776,79.9002152 828.075844,75.7106579 834.380395,75.7106579 C840.684945,73.6158793 846.989495,73.6158793 853.294046,73.6158793 L868.004664,73.6158793 C882.715283,73.6158793 895.324383,75.7106579 907.933484,77.8054366 C918.44107,79.9002152 926.847135,84.0897725 935.253203,88.2793299 C941.557754,92.4688872 947.862304,96.6584445 952.06534,102.94278 C956.268372,109.227116 958.36989,113.416673 960.471408,119.701009 C962.572923,125.985345 962.572923,130.174903 964.67444,136.459239 L964.67444,151.122689 L962.572923,245.387728 C962.572923,255.861622 962.572923,266.335514 964.67444,272.61985 C966.775958,278.904186 968.877473,283.093745 975.182023,285.188522 L975.182023,289.37808 L910.035002,289.37808 L903.730451,268.430294 L901.628934,268.430294 C893.222866,278.904186 882.715283,285.188522 870.106182,289.37808 C857.497081,293.567637 844.887978,295.662416 832.278877,295.662416 C815.466743,295.662416 802.85764,293.567637 794.451575,289.37808 C786.045507,285.188522 777.639438,278.904186 773.436406,272.61985 C769.23337,266.335514 765.030338,260.051179 765.030338,253.766843 C762.92882,247.482507 762.92882,241.198171 762.92882,237.008614 C762.92882,224.439942 765.030338,216.060827 769.23337,207.681713 C773.436406,199.302598 779.740956,193.018262 786.045507,188.828705 C792.350057,184.639148 800.756125,180.44959 811.263708,178.354812 C819.669776,176.260033 830.177359,174.165254 838.583427,172.070476 C849.091013,169.975697 859.598596,169.975697 868.004664,167.880918 C876.410732,167.880918 882.715283,165.78614 886.918315,165.78614 C891.121351,163.691361 895.324383,163.691361 897.425901,161.596582 C899.527416,159.501804 901.628934,155.312247 901.628934,151.122689 L901.628934,138.554017 C901.628934,132.269681 899.527416,125.985345 897.425901,123.890567 C895.324383,119.701009 891.121351,117.606231 886.918315,115.511452 C882.715283,113.416673 880.613765,113.416673 876.410732,113.416673 L868.004664,113.416673 L857.497081,113.416673 C853.294046,113.416673 849.091013,115.511452 844.887978,117.606231 C840.684945,119.701009 836.481912,123.890567 834.380395,128.080124 C832.278877,132.269681 830.177359,138.554017 830.177359,144.838353 L773.436406,144.838353 L773.436406,144.838353 Z M901.628934,186.733926 C897.425901,188.828705 893.222866,190.923484 891.121351,190.923484 C889.019833,190.923484 886.918315,193.018262 882.715283,193.018262 C880.613765,193.018262 878.512247,195.113041 874.309215,195.113041 C870.106182,195.113041 865.903146,197.20782 859.598596,197.20782 C855.395563,197.20782 853.294046,199.302598 849.091013,199.302598 C844.887978,199.302598 840.684945,201.397377 836.481912,203.492155 C832.278877,205.586934 830.177359,207.681713 828.075844,211.87127 C825.974327,216.060827 823.872809,220.250384 823.872809,226.53472 C823.872809,230.724278 825.974327,234.913835 828.075844,239.103392 C830.177359,241.198171 832.278877,245.387728 836.481912,245.387728 C840.684945,247.482507 842.786463,247.482507 846.989495,249.577286 L857.497081,249.577286 C861.700114,249.577286 865.903146,249.577286 870.106182,247.482507 C874.309215,245.387728 880.613765,243.29295 884.8168,239.103392 C889.019833,234.913835 893.222866,230.724278 897.425901,224.439942 C901.628934,218.155606 901.628934,209.776491 901.628934,199.302598 L901.628934,186.733926 L901.628934,186.733926 Z" id="Shape"></path>
                    <path d="M994.095677,77.8054366 L1031.92298,77.8054366 L1031.92298,17.0568559 L1092.86697,17.0568559 L1092.86697,77.8054366 L1136.99882,77.8054366 L1136.99882,119.701009 L1092.86697,119.701009 L1092.86697,218.155606 L1092.86697,228.629499 C1092.86697,232.819056 1092.86697,234.913835 1094.96849,237.008614 C1097.07,239.103392 1099.17152,241.198171 1101.27304,243.29295 C1105.47607,245.387728 1109.6791,245.387728 1115.98365,245.387728 C1120.18669,245.387728 1124.38972,245.387728 1128.59276,243.29295 C1132.79579,243.29295 1134.89731,241.198171 1136.99882,241.198171 L1136.99882,283.093745 C1128.59276,285.188522 1120.18669,285.188522 1111.78062,287.283301 C1103.37455,289.37808 1094.96849,289.37808 1086.56242,289.37808 C1076.05483,289.37808 1067.64877,287.283301 1061.34422,285.188522 C1055.03967,283.093745 1048.73512,278.904186 1044.53208,274.71463 C1040.32905,270.525073 1036.12601,264.240735 1036.12601,255.861622 C1034.0245,247.482507 1034.0245,239.103392 1034.0245,228.629499 L1034.0245,119.701009 L996.197192,119.701009 L996.197192,77.8054366 L994.095677,77.8054366 Z" id="Shape"></path>
                    <path d="M1317.72928,0.298626718 C1336.64293,0.298626718 1351.35354,2.39340538 1361.86113,6.58296266 C1372.36871,10.77252 1382.8763,17.0568559 1389.18085,23.3411917 C1395.4854,29.6255277 1399.68843,38.0046423 1401.78995,46.383757 C1403.89147,54.7628716 1405.99298,63.1419862 1405.99298,69.4263219 C1405.99298,86.1845512 1401.78995,98.7532231 1393.38388,107.132338 C1384.97781,115.511452 1374.47023,123.890567 1359.75961,128.080124 L1359.75961,128.080124 C1366.06416,130.174903 1372.36871,130.174903 1378.67326,134.36446 C1384.97781,136.459239 1391.28236,140.648796 1397.58692,146.933132 C1403.89147,153.217468 1408.0945,159.501804 1412.29753,167.880918 C1416.50057,176.260033 1418.60208,186.733926 1418.60208,199.302598 C1418.60208,216.060827 1414.39905,230.724278 1408.0945,241.198171 C1401.78995,251.672064 1393.38388,260.051179 1382.8763,264.240735 C1372.36871,270.525073 1361.86113,272.61985 1347.15051,274.71463 C1334.54141,276.809409 1321.93231,276.809409 1309.32321,276.809409 L1174.82613,276.809409 L1174.82613,0.298626718 L1317.72928,0.298626718 L1317.72928,0.298626718 Z M1242.07467,113.416673 L1303.01866,113.416673 C1309.32321,113.416673 1315.62776,113.416673 1319.83079,111.321895 C1324.03383,109.227116 1328.23686,107.132338 1330.33838,102.94278 C1332.43989,100.848002 1334.54141,96.6584445 1334.54141,92.4688872 C1334.54141,88.2793299 1336.64293,86.1845512 1336.64293,84.0897725 C1336.64293,81.9949939 1336.64293,77.8054366 1334.54141,75.7106579 C1334.54141,71.5211006 1332.43989,69.4263219 1328.23686,67.3315433 C1326.13534,65.2367646 1321.93231,63.1419862 1317.72928,61.0472076 C1313.52624,58.9524289 1307.22169,58.9524289 1298.81562,58.9524289 L1239.97315,58.9524289 L1239.97315,113.416673 L1242.07467,113.416673 Z M1242.07467,228.629499 L1311.42472,228.629499 C1313.52624,228.629499 1317.72928,228.629499 1321.93231,226.53472 C1326.13534,226.53472 1330.33838,224.439942 1334.54141,222.345163 C1338.74444,220.250384 1340.84596,216.060827 1345.04899,211.87127 C1347.15051,207.681713 1349.25203,201.397377 1349.25203,195.113041 C1349.25203,188.828705 1347.15051,182.544369 1345.04899,178.354812 C1342.94748,174.165254 1338.74444,169.975697 1334.54141,167.880918 C1330.33838,165.78614 1326.13534,163.691361 1319.83079,163.691361 C1313.52624,163.691361 1309.32321,161.596582 1303.01866,161.596582 L1242.07467,161.596582 L1242.07467,228.629499 L1242.07467,228.629499 Z" id="Shape"></path>
                    <path d="M1466.93697,144.838353 C1466.93697,132.269681 1469.03849,123.890567 1473.24152,115.511452 C1477.44456,107.132338 1481.64759,100.848002 1487.95214,94.5636658 C1494.25669,88.2793299 1500.56124,84.0897725 1506.86579,81.9949939 C1513.17035,79.9002152 1521.57641,75.7106579 1527.88096,75.7106579 C1534.18551,73.6158793 1540.49006,73.6158793 1546.79461,73.6158793 L1561.50523,73.6158793 C1576.21585,73.6158793 1588.82495,75.7106579 1601.43405,77.8054366 C1611.94164,79.9002152 1620.3477,84.0897725 1628.75377,88.2793299 C1635.05832,92.4688872 1641.36287,96.6584445 1645.56591,102.94278 C1649.76894,109.227116 1651.87046,113.416673 1653.97197,119.701009 C1656.07349,125.985345 1656.07349,130.174903 1658.17501,136.459239 L1658.17501,151.122689 L1656.07349,245.387728 C1656.07349,255.861622 1656.07349,266.335514 1658.17501,272.61985 C1660.27652,278.904186 1662.37804,283.093745 1668.68259,285.188522 L1668.68259,289.37808 L1603.53557,289.37808 L1599.33254,268.430294 L1597.23102,268.430294 C1588.82495,278.904186 1578.31737,285.188522 1565.70827,289.37808 C1553.09917,293.567637 1540.49006,295.662416 1527.88096,295.662416 C1511.06883,295.662416 1498.45973,293.567637 1490.05366,289.37808 C1481.64759,285.188522 1473.24152,278.904186 1469.03849,272.61985 C1464.83546,266.335514 1460.63242,260.051179 1460.63242,253.766843 C1458.5309,247.482507 1458.5309,241.198171 1458.5309,237.008614 C1458.5309,224.439942 1460.63242,216.060827 1464.83546,207.681713 C1469.03849,199.302598 1475.34304,193.018262 1481.64759,188.828705 C1487.95214,184.639148 1496.35821,180.44959 1506.86579,178.354812 C1515.27186,176.260033 1525.77945,174.165254 1534.18551,172.070476 C1544.6931,169.975697 1555.20068,169.975697 1563.60675,167.880918 C1572.01282,167.880918 1578.31737,165.78614 1582.5204,165.78614 C1586.72343,163.691361 1590.92647,163.691361 1593.02799,161.596582 C1595.1295,159.501804 1597.23102,155.312247 1597.23102,151.122689 L1597.23102,138.554017 C1597.23102,132.269681 1595.1295,125.985345 1593.02799,123.890567 C1590.92647,119.701009 1586.72343,117.606231 1582.5204,115.511452 C1578.31737,113.416673 1576.21585,113.416673 1572.01282,113.416673 L1563.60675,113.416673 L1553.09917,113.416673 C1548.89613,113.416673 1544.6931,115.511452 1540.49006,117.606231 C1536.28703,119.701009 1532.084,123.890567 1529.98248,128.080124 C1527.88096,132.269681 1525.77945,138.554017 1525.77945,144.838353 L1466.93697,144.838353 L1466.93697,144.838353 Z M1597.23102,186.733926 C1593.02799,188.828705 1588.82495,190.923484 1586.72343,190.923484 C1584.62192,190.923484 1582.5204,193.018262 1578.31737,193.018262 C1576.21585,193.018262 1574.11433,195.113041 1569.9113,195.113041 C1565.70827,195.113041 1561.50523,197.20782 1555.20068,197.20782 C1550.99765,197.20782 1548.89613,199.302598 1544.6931,199.302598 C1540.49006,199.302598 1536.28703,201.397377 1532.084,203.492155 C1527.88096,205.586934 1525.77945,207.681713 1523.67793,211.87127 C1521.57641,216.060827 1519.4749,220.250384 1519.4749,226.53472 C1519.4749,230.724278 1521.57641,234.913835 1523.67793,239.103392 C1525.77945,241.198171 1527.88096,245.387728 1532.084,245.387728 C1536.28703,247.482507 1538.38855,247.482507 1542.59158,249.577286 L1553.09917,249.577286 C1557.3022,249.577286 1561.50523,249.577286 1565.70827,247.482507 C1569.9113,245.387728 1576.21585,243.29295 1580.41888,239.103392 C1584.62192,234.913835 1588.82495,230.724278 1593.02799,224.439942 C1597.23102,218.155606 1597.23102,209.776491 1597.23102,199.302598 L1597.23102,186.733926 L1597.23102,186.733926 Z" id="Shape"></path>
                    <path d="M1767.45389,102.94278 C1775.85995,92.4688872 1786.36754,84.0897725 1798.97664,77.8054366 C1811.58574,73.6158793 1824.19484,69.4263219 1838.90546,69.4263219 C1845.21001,69.4263219 1853.61608,69.4263219 1862.02214,71.5211006 C1870.42821,73.6158793 1876.73276,75.7106579 1885.13883,81.9949939 C1891.44338,88.2793299 1897.74793,96.6584445 1901.95096,107.132338 C1906.154,117.606231 1908.25551,134.36446 1908.25551,153.217468 L1908.25551,280.998965 L1847.31153,280.998965 L1847.31153,161.596582 L1847.31153,144.838353 C1847.31153,138.554017 1845.21001,132.269681 1843.10849,128.080124 C1841.00698,121.795788 1836.80394,117.606231 1832.60091,115.511452 C1828.39787,111.321895 1822.09332,109.227116 1813.68726,109.227116 C1803.17967,109.227116 1794.77361,111.321895 1790.57057,117.606231 C1784.26602,121.795788 1780.06299,128.080124 1777.96147,134.36446 C1775.85995,140.648796 1773.75844,146.933132 1773.75844,153.217468 L1773.75844,165.78614 L1773.75844,280.998965 L1712.81445,280.998965 L1712.81445,75.7106579 L1771.65692,75.7106579 L1771.65692,102.94278 L1767.45389,102.94278 Z" id="Shape"></path>
                    <polygon id="Shape" points="2088.98597 77.8054366 2162.53906 77.8054366 2080.5799 157.407025 2168.84361 280.998965 2095.29052 280.998965 2038.54956 195.113041 2017.53439 216.060827 2017.53439 278.904186 1956.5904 278.904186 1956.5904 0.298626718 2017.53439 0.298626718 2017.53439 155.312247"></polygon>
                </g>
            </g>
        </g>
    </g>
</svg>