<?xml version="1.0" encoding="utf-8"?>
<svg version="1.1" id="layer_1" xmlns="http://www.w3.org/2000/svg" xmlns:xlink="http://www.w3.org/1999/xlink" x="0px" y="0px"
	 viewBox="0 0 1214.4 783.4" style="enable-background:new 0 0 1214.4 783.4;" xml:space="preserve">
<style type="text/css">
	.st0{fill:none;stroke:#FFFFFF;stroke-width:0.5669;stroke-linecap:round;stroke-linejoin:round;stroke-miterlimit:10;}
	.st1{fill:none;stroke:#FFFFFF;stroke-width:3px; stroke-miterlimit:10;}
	.st2{fill:none;stroke:#FFFFFF;stroke-miterlimit:10;}
	.st3{fill: #FFF; font-family:'ArialMT';}
	.st4{font-size:24px;}
</style>
<g id="SPLINE_4_">
	<path class="st0" d="M995.4,349.2c4,0,7.3,3.2,7.3,7.3c0,4-3.2,7.3-7.3,7.3s-7.3-3.2-7.3-7.3C988.2,352.5,991.4,349.2,995.4,349.2z
		"/>
</g>
<path class="st1" d="M1091.4,283.4c-24.1-13.9-48.2-27.8-72.4-41.8c-9.8-5.7-12.2-10.6-12.2-21.9c0-25.6,0-51.2,0-76.9
	c0-17.2-13.9-31.1-31.1-31.1c-12.8,0-23.7,7.7-28.5,18.7c-4.3,9.8-4.9,12.5-16.6,12.5H284.5c-11.7,0-12.4-2.7-16.6-12.5
	c-4.8-11-15.8-18.7-28.5-18.7c-17.2,0-31.1,13.9-31.1,31.1c0,25.6,0,51.2,0,76.9c0,11.4-2.4,16.3-12.2,22
	c-24.1,13.9-48.2,27.8-72.4,41.8c-10.7,6.2-13.2,12.8-13.2,24.9v96.3c0,12.1,2.5,18.7,13.2,24.9c24.1,13.9,48.2,27.9,72.4,41.8
	c9.8,5.7,12.2,10.6,12.2,22c0,49.1,0,98.3,0,147.4c0,17.2,13.9,31.1,31.1,31.1c12.8,0,23.7-7.7,28.5-18.7
	c4.3-9.8,4.9-12.5,16.6-12.5h646.1c11.7,0,12.4,2.7,16.6,12.5c4.8,11,15.8,18.7,28.5,18.7c17.2,0,31.1-13.9,31.1-31.1
	c0-49.1,0-98.3,0-147.4c0-11.4,2.5-16.3,12.2-22c24.1-13.9,48.2-27.9,72.4-41.8c10.7-6.2,13.2-12.8,13.2-24.9v-96.3
	C1104.6,296.2,1102.1,289.6,1091.4,283.4z M219.6,363.7c-4,0-7.3-3.2-7.3-7.3c0-4,3.2-7.3,7.3-7.3c4,0,7.3,3.2,7.3,7.3
	C226.9,360.5,223.6,363.7,219.6,363.7z M239.3,652c-6.3,0-11.4-5.1-11.4-11.4s5.1-11.4,11.4-11.4s11.4,5.1,11.4,11.4
	S245.6,652,239.3,652z M239.3,154.2c-6.3,0-11.4-5.1-11.4-11.4s5.1-11.4,11.4-11.4s11.4,5.1,11.4,11.4S245.6,154.2,239.3,154.2z
	 M607.5,529.7c-4,0-7.3-3.2-7.3-7.3s3.2-7.3,7.3-7.3s7.3,3.2,7.3,7.3S611.5,529.7,607.5,529.7z M607.5,236.2c-4,0-7.3-3.2-7.3-7.3
	c0-4,3.2-7.3,7.3-7.3s7.3,3.2,7.3,7.3C614.8,232.9,611.5,236.2,607.5,236.2z M975.7,652c-6.3,0-11.4-5.1-11.4-11.4
	s5.1-11.4,11.4-11.4s11.4,5.1,11.4,11.4S982,652,975.7,652z M975.7,154.2c-6.3,0-11.4-5.1-11.4-11.4s5.1-11.4,11.4-11.4
	s11.4,5.1,11.4,11.4S982,154.2,975.7,154.2z M995.4,363.7c-4,0-7.3-3.2-7.3-7.3c0-4,3.2-7.3,7.3-7.3s7.3,3.2,7.3,7.3
	C1002.7,360.5,999.4,363.7,995.4,363.7z"/>
<path d="M239.3,142.8"/>
<polyline class="st2" points="975.7,111.7 975.7,86.5 239.3,86.5 239.3,111.7 "/>
<text transform="matrix(1 0 0 1 584.427 76.3658)" class="st3 st4">180 mm</text>
<polyline class="st2" points="1006.6,640.6 1140.9,640.6 1140.9,143 1006.6,143 "/>
<text transform="matrix(6.123234e-17 1 -1 6.123234e-17 1151.2039 366.2091)" class="st3 st4">120 mm</text>
</svg>
